# xmcd
#
# Track frame offsets:
#	150
#	13836
#	30027
#	45910
#	59287
#	75027
#	91185
#	105501
#	122929
#	136469
#	150943
#	164841
#	178106
#	191417
#
# Disc length: 2753
#
# Revision: 2
# Processed by: cddbd v1.5.1PL0 Copyright (c) Steve Scherf et al.
# Submitted via: audiograbber 1.83.01
# Normalized: r1:DSETVAR1
#
DISCID=9d0abf0e
DTITLE=Various Artist - Goldene Volksmusikparade 2003_2
DYEAR=2003
DGENRE=Volksmusik
TTITLE0=Nockalm Quintett and Stephanie - Dort auf Wolke sieben
TTITLE1=Kastelruther Spatzen - Liebe darf alles
TTITLE2=Die Paldauer - Du bist der absolute Knaller
TTITLE3=Die Edlseer - Weit übers Land
TTITLE4=Stefanie Hertel - Wolkenlos
TTITLE5=Zellberg Buam - Bella Maria
TTITLE6=Original Südtirol Buam - Morgenmuffel
TTITLE7=Begfeuer - Flieg weißer Adler
TTITLE8=Fernando Express - El Gitano
TTITLE9=Judith and Mel - Mein Herz für dich
TTITLE10=Sigrid and Marina - Bald kommt ein neuer Tag
TTITLE11=Stefan Mross - Angeli della Montagne
TTITLE12=Patrizius - Ich bin dein Freund
TTITLE13=Die jungen Zillertaler - Stimmung total aus dem Zillertal
EXTD=
EXTT0=
EXTT1=
EXTT2=
EXTT3=
EXTT4=
EXTT5=
EXTT6=
EXTT7=
EXTT8=
EXTT9=
EXTT10=
EXTT11=
EXTT12=
EXTT13=
PLAYORDER=
